<?xml version="1.0" standalone="no"?><svg xmlns:xlink="http://www.w3.org/1999/xlink" xmlns="http://www.w3.org/2000/svg" viewBox="0 0 500 350.0015072594374" preserveAspectRatio="xMaxYMax slice"><g transform="scale(0.7932944407512181)"><rect x="0" y="0" width="630.2857142857143" height="441.20000000000005" fill="#ffffff"/><rect x="0" y="0" width="63.03" height="63.03" fill="#183FE1"/><path d="M 0 0 A 63.03 63.03 0 0 1 63.03 63.03 L 0 63.03" fill="#FF3565"/><rect x="63.03" y="0" width="63.03" height="63.03" fill="#183FE1"/><polygon points="126.06,0 126.06,63.03 63.03,63.03" fill="#183FE1"/><rect x="126.05714285714286" y="0" width="63.02857142857143" height="63.02857142857143" fill="#ffffff"/><rect x="126.06" y="0" width="31.51" height="31.51" fill="#FF3565"/><polygon points="157.57,0 157.57,31.51 126.06,31.51" fill="#FF3565"/><rect x="157.57" y="0" width="31.51" height="31.51" fill="#20dfdf"/><polygon points="157.57,0 189.07999999999998,31.51 157.57,31.51" fill="#FF3565"/><rect x="126.06" y="31.51" width="31.51" height="31.51" fill="#183FE1"/><polygon points="126.06,31.51 157.57,31.51 157.57,63.02" fill="#20dfdf"/><rect x="157.57" y="31.51" width="31.51" height="31.51" fill="#FF3565"/><polygon points="157.57,31.51 189.07999999999998,31.51 157.57,63.02" fill="#FF3565"/><rect x="189.0857142857143" y="0" width="63.02857142857143" height="63.02857142857143" fill="#ffffff"/><rect x="189.09" y="0" width="31.51" height="31.51" fill="#183FE1"/><path d="M 189.09 0 A 31.51 31.51 0 0 1 220.6 31.51 L 189.09 31.51" fill="#FF3565"/><rect x="220.6" y="0" width="31.51" height="31.51" fill="#20dfdf"/><path d="M 220.6 31.51 A 31.51 31.51 0 0 1  252.10999999999999 0 L 252.10999999999999 31.51" fill="#FF3565"/><rect x="189.09" y="31.51" width="31.51" height="31.51" fill="#183FE1"/><path d="M 189.09 63.02 A 31.51 31.51 0 0 0 220.6 31.51 L 189.09 31.51" fill="#FF3565"/><rect x="220.6" y="31.51" width="31.51" height="31.51" fill="#FF3565"/><path d="M 220.6 31.51 A 31.51 31.51 0 0 0 252.10999999999999 63.02 L 252.10999999999999 31.51" fill="#20dfdf"/><rect x="252.11428571428573" y="0" width="63.02857142857143" height="63.02857142857143" fill="#ffffff"/><rect x="252.11" y="0" width="31.51" height="31.51" fill="#183FE1"/><polygon points="283.62,0 283.62,31.51 252.11,31.51" fill="#FF3565"/><rect x="283.63" y="0" width="31.51" height="31.51" fill="#20dfdf"/><polygon points="283.63,0 315.14,0 283.63,31.51" fill="#20dfdf"/><rect x="252.11" y="31.51" width="31.51" height="31.51" fill="#20dfdf"/><polygon points="252.11,31.51 283.62,31.51 283.62,63.02" fill="#20dfdf"/><rect x="283.63" y="31.51" width="31.51" height="31.51" fill="#183FE1"/><polygon points="283.63,31.51 315.14,63.02 283.63,63.02" fill="#FF3565"/><rect x="315.14" y="0" width="63.03" height="63.03" fill="#FF3565"/><polygon points="378.16999999999996,0 378.16999999999996,63.03 315.14,63.03" fill="#FF3565"/><rect x="378.17" y="0" width="63.03" height="63.03" fill="#183FE1"/><rect x="378.17" y="0" width="63.03" height="63.03" fill="#183FE1"/><rect x="441.2" y="0" width="63.03" height="63.03" fill="#FF3565"/><path d="M 441.2 63.03 A 63.03 63.03 0 0 0 504.23 0 L 441.2 0" fill="#183FE1"/><rect x="504.23" y="0" width="63.03" height="63.03" fill="#FF3565"/><polygon points="504.23,0 567.26,0 504.23,63.03" fill="#183FE1"/><rect x="567.26" y="0" width="63.03" height="63.03" fill="#FF3565"/><path d="M 567.26 63.03 A 63.03 63.03 0 0 1  630.29 0 L 630.29 63.03" fill="#20dfdf"/><rect x="0" y="63.02857142857143" width="63.02857142857143" height="63.02857142857143" fill="#ffffff"/><rect x="0" y="63.03" width="31.51" height="31.51" fill="#FF3565"/><polygon points="31.51,63.03 31.51,94.54 0,94.54" fill="#183FE1"/><rect x="31.51" y="63.03" width="31.51" height="31.51" fill="#20dfdf"/><polygon points="31.51,63.03 63.02,63.03 31.51,94.54" fill="#183FE1"/><rect x="0" y="94.54" width="31.51" height="31.51" fill="#FF3565"/><polygon points="0,94.54 31.51,94.54 31.51,126.05000000000001" fill="#183FE1"/><rect x="31.51" y="94.54" width="31.51" height="31.51" fill="#FF3565"/><polygon points="31.51,94.54 63.02,126.05000000000001 31.51,126.05000000000001" fill="#FF3565"/><rect x="63.02857142857143" y="63.02857142857143" width="63.02857142857143" height="63.02857142857143" fill="#ffffff"/><rect x="63.03" y="63.03" width="31.51" height="31.51" fill="#183FE1"/><path d="M 63.03 94.54 A 31.51 31.51 0 0 1 94.54 63.03 L 94.54 70.9075 A 23.6325 23.6325 0 0 0 70.9075 94.54" fill="#20dfdf"/><rect x="94.54" y="63.03" width="31.51" height="31.51" fill="#183FE1"/><path d="M 94.54 63.03 A 31.51 31.51 0 0 1 126.05000000000001 94.54 L 118.17250000000001 94.54 A 23.6325 23.6325 0 0 0 94.54 70.9075" fill="#20dfdf"/><rect x="63.03" y="94.54" width="31.51" height="31.51" fill="#20dfdf"/><path d="M 63.03 94.54 A 31.51 31.51 0 0 0 94.54 126.05000000000001 L 94.54 118.17250000000001 A 23.6325 23.6325 0 0 1 70.9075 94.54" fill="#FF3565"/><rect x="94.54" y="94.54" width="31.51" height="31.51" fill="#20dfdf"/><path d="M 94.54 126.05000000000001 A 31.51 31.51 0 0 0 126.05000000000001 94.54 L 118.17250000000001 94.54 A 23.6325 23.6325 0 0 1 94.54 118.17250000000001" fill="#183FE1"/><rect x="126.05714285714286" y="63.02857142857143" width="63.02857142857143" height="63.02857142857143" fill="#ffffff"/><rect x="126.06" y="63.03" width="31.51" height="31.51" fill="#FF3565"/><circle cx="141.815" cy="78.785" r="15.755" fill="#FF3565"/><rect x="157.57" y="63.03" width="31.51" height="31.51" fill="#20dfdf"/><rect x="157.57" y="63.03" width="31.51" height="31.51" fill="#183FE1"/><rect x="126.06" y="94.54" width="31.51" height="31.51" fill="#183FE1"/><circle cx="141.815" cy="110.295" r="15.755" fill="#FF3565"/><rect x="157.57" y="94.54" width="31.51" height="31.51" fill="#20dfdf"/><rect x="157.57" y="94.54" width="31.51" height="31.51" fill="#20dfdf"/><rect x="189.09" y="63.03" width="63.03" height="63.03" fill="#20dfdf"/><rect x="189.09" y="63.03" width="63.03" height="63.03" fill="#183FE1"/><rect x="252.11428571428573" y="63.02857142857143" width="63.02857142857143" height="63.02857142857143" fill="#ffffff"/><rect x="252.11" y="63.03" width="31.51" height="31.51" fill="#183FE1"/><polygon points="283.62,63.03 283.62,94.54 252.11,94.54" fill="#FF3565"/><rect x="283.63" y="63.03" width="31.51" height="31.51" fill="#FF3565"/><polygon points="283.63,63.03 315.14,63.03 283.63,94.54" fill="#20dfdf"/><rect x="252.11" y="94.54" width="31.51" height="31.51" fill="#183FE1"/><polygon points="252.11,94.54 283.62,94.54 283.62,126.05000000000001" fill="#FF3565"/><rect x="283.63" y="94.54" width="31.51" height="31.51" fill="#FF3565"/><polygon points="283.63,94.54 315.14,126.05000000000001 283.63,126.05000000000001" fill="#FF3565"/><rect x="315.14285714285717" y="63.02857142857143" width="63.02857142857143" height="63.02857142857143" fill="#ffffff"/><rect x="315.14" y="63.03" width="31.51" height="31.51" fill="#FF3565"/><polygon points="346.65,63.03 346.65,94.54 315.14,94.54" fill="#183FE1"/><rect x="346.66" y="63.03" width="31.51" height="31.51" fill="#183FE1"/><polygon points="346.66,63.03 378.17,94.54 346.66,94.54" fill="#183FE1"/><rect x="315.14" y="94.54" width="31.51" height="31.51" fill="#20dfdf"/><polygon points="315.14,94.54 346.65,94.54 315.14,126.05000000000001" fill="#183FE1"/><rect x="346.66" y="94.54" width="31.51" height="31.51" fill="#FF3565"/><polygon points="346.66,94.54 378.17,94.54 378.17,126.05000000000001" fill="#20dfdf"/><rect x="378.1714285714286" y="63.02857142857143" width="63.02857142857143" height="63.02857142857143" fill="#ffffff"/><rect x="378.17" y="63.03" width="31.51" height="31.51" fill="#FF3565"/><polygon points="409.68,63.03 409.68,94.54 378.17,94.54" fill="#20dfdf"/><rect x="409.69" y="63.03" width="31.51" height="31.51" fill="#20dfdf"/><polygon points="409.69,63.03 441.2,63.03 409.69,94.54" fill="#FF3565"/><rect x="378.17" y="94.54" width="31.51" height="31.51" fill="#FF3565"/><polygon points="378.17,94.54 409.68,94.54 409.68,126.05000000000001" fill="#183FE1"/><rect x="409.69" y="94.54" width="31.51" height="31.51" fill="#FF3565"/><polygon points="409.69,94.54 441.2,126.05000000000001 409.69,126.05000000000001" fill="#183FE1"/><rect x="441.2" y="63.03" width="63.03" height="63.03" fill="#20dfdf"/><polygon points="504.23,63.03 504.23,126.06 441.2,126.06" fill="#183FE1"/><rect x="504.22857142857146" y="63.02857142857143" width="63.02857142857143" height="63.02857142857143" fill="#ffffff"/><rect x="504.23" y="63.03" width="31.51" height="31.51" fill="#FF3565"/><circle cx="519.985" cy="78.785" r="15.755" fill="#20dfdf"/><rect x="535.74" y="63.03" width="31.51" height="31.51" fill="#FF3565"/><rect x="535.74" y="63.03" width="31.51" height="31.51" fill="#FF3565"/><rect x="504.23" y="94.54" width="31.51" height="31.51" fill="#FF3565"/><circle cx="519.985" cy="110.295" r="15.755" fill="#FF3565"/><rect x="535.74" y="94.54" width="31.51" height="31.51" fill="#20dfdf"/><rect x="535.74" y="94.54" width="31.51" height="31.51" fill="#20dfdf"/><rect x="567.2571428571429" y="63.02857142857143" width="63.02857142857143" height="63.02857142857143" fill="#ffffff"/><rect x="567.26" y="63.03" width="31.51" height="31.51" fill="#183FE1"/><polygon points="598.77,63.03 598.77,94.54 567.26,94.54" fill="#20dfdf"/><rect x="598.77" y="63.03" width="31.51" height="31.51" fill="#20dfdf"/><polygon points="598.77,63.03 630.28,94.54 598.77,94.54" fill="#20dfdf"/><rect x="567.26" y="94.54" width="31.51" height="31.51" fill="#FF3565"/><polygon points="567.26,94.54 598.77,94.54 598.77,126.05000000000001" fill="#FF3565"/><rect x="598.77" y="94.54" width="31.51" height="31.51" fill="#20dfdf"/><polygon points="598.77,94.54 630.28,94.54 598.77,126.05000000000001" fill="#20dfdf"/><rect x="0" y="126.05714285714286" width="63.02857142857143" height="63.02857142857143" fill="#ffffff"/><rect x="0" y="126.06" width="31.51" height="31.51" fill="#FF3565"/><polygon points="31.51,126.06 31.51,157.57 0,157.57" fill="#FF3565"/><rect x="31.51" y="126.06" width="31.51" height="31.51" fill="#20dfdf"/><polygon points="31.51,126.06 63.02,157.57 31.51,157.57" fill="#20dfdf"/><rect x="0" y="157.57" width="31.51" height="31.51" fill="#183FE1"/><polygon points="0,157.57 31.51,157.57 0,189.07999999999998" fill="#20dfdf"/><rect x="31.51" y="157.57" width="31.51" height="31.51" fill="#FF3565"/><polygon points="31.51,157.57 63.02,157.57 63.02,189.07999999999998" fill="#20dfdf"/><rect x="63.02857142857143" y="126.05714285714286" width="63.02857142857143" height="63.02857142857143" fill="#ffffff"/><rect x="63.03" y="126.06" width="31.51" height="31.51" fill="#FF3565"/><circle cx="78.785" cy="141.815" r="15.755" fill="#20dfdf"/><rect x="94.54" y="126.06" width="31.51" height="31.51" fill="#20dfdf"/><rect x="94.54" y="126.06" width="31.51" height="31.51" fill="#FF3565"/><rect x="63.03" y="157.57" width="31.51" height="31.51" fill="#FF3565"/><circle cx="78.785" cy="173.325" r="15.755" fill="#183FE1"/><rect x="94.54" y="157.57" width="31.51" height="31.51" fill="#FF3565"/><rect x="94.54" y="157.57" width="31.51" height="31.51" fill="#183FE1"/><rect x="126.06" y="126.06" width="63.03" height="63.03" fill="#FF3565"/><path d="M 126.06 126.06 A 63.03 63.03 0 0 1  189.09 189.09 L 126.06 126.06 A 63.03 63.03 0 0 0 189.09 189.09" fill="#183FE1"/><rect x="189.09" y="126.06" width="63.03" height="63.03" fill="#20dfdf"/><path d="M 189.09 126.06 A 63.03 63.03 0 0 0 252.12 189.09 L 252.12 126.06" fill="#FF3565"/><rect x="252.11428571428573" y="126.05714285714286" width="63.02857142857143" height="63.02857142857143" fill="#ffffff"/><rect x="252.11" y="126.06" width="31.51" height="31.51" fill="#FF3565"/><path d="M 252.11 157.57 A 31.51 31.51 0 0 1 283.62 126.06 L 283.62 133.9375 A 23.6325 23.6325 0 0 0 259.9875 157.57" fill="#183FE1"/><rect x="283.63" y="126.06" width="31.51" height="31.51" fill="#183FE1"/><path d="M 283.63 126.06 A 31.51 31.51 0 0 1 315.14 157.57 L 307.2625 157.57 A 23.6325 23.6325 0 0 0 283.63 133.9375" fill="#183FE1"/><rect x="252.11" y="157.57" width="31.51" height="31.51" fill="#FF3565"/><path d="M 252.11 157.57 A 31.51 31.51 0 0 0 283.62 189.07999999999998 L 283.62 181.2025 A 23.6325 23.6325 0 0 1 259.9875 157.57" fill="#FF3565"/><rect x="283.63" y="157.57" width="31.51" height="31.51" fill="#FF3565"/><path d="M 283.63 189.07999999999998 A 31.51 31.51 0 0 0 315.14 157.57 L 307.2625 157.57 A 23.6325 23.6325 0 0 1 283.63 181.2025" fill="#20dfdf"/><rect x="315.14285714285717" y="126.05714285714286" width="63.02857142857143" height="63.02857142857143" fill="#ffffff"/><rect x="315.14" y="126.06" width="31.51" height="31.51" fill="#FF3565"/><path d="M 315.14 157.57 A 31.51 31.51 0 0 0 346.65 126.06 L 315.14 126.06" fill="#183FE1"/><rect x="346.66" y="126.06" width="31.51" height="31.51" fill="#20dfdf"/><path d="M 346.66 126.06 A 31.51 31.51 0 0 0 378.17 157.57 L 378.17 126.06" fill="#183FE1"/><rect x="315.14" y="157.57" width="31.51" height="31.51" fill="#FF3565"/><path d="M 315.14 157.57 A 31.51 31.51 0 0 1 346.65 189.07999999999998 L 315.14 189.07999999999998" fill="#183FE1"/><rect x="346.66" y="157.57" width="31.51" height="31.51" fill="#20dfdf"/><path d="M 346.66 189.07999999999998 A 31.51 31.51 0 0 1  378.17 157.57 L 378.17 189.07999999999998" fill="#20dfdf"/><rect x="378.1714285714286" y="126.05714285714286" width="63.02857142857143" height="63.02857142857143" fill="#ffffff"/><rect x="378.17" y="126.06" width="31.51" height="31.51" fill="#183FE1"/><polygon points="409.68,126.06 409.68,157.57 378.17,157.57" fill="#183FE1"/><rect x="409.69" y="126.06" width="31.51" height="31.51" fill="#FF3565"/><polygon points="409.69,126.06 441.2,157.57 409.69,157.57" fill="#183FE1"/><rect x="378.17" y="157.57" width="31.51" height="31.51" fill="#FF3565"/><polygon points="378.17,157.57 409.68,157.57 409.68,189.07999999999998" fill="#FF3565"/><rect x="409.69" y="157.57" width="31.51" height="31.51" fill="#183FE1"/><polygon points="409.69,157.57 441.2,157.57 409.69,189.07999999999998" fill="#20dfdf"/><rect x="441.2" y="126.06" width="63.03" height="63.03" fill="#183FE1"/><rect x="441.2" y="126.06" width="63.03" height="63.03" fill="#20dfdf"/><rect x="504.23" y="126.06" width="63.03" height="63.03" fill="#183FE1"/><polygon points="504.23,126.06 567.26,189.09 504.23,189.09" fill="#FF3565"/><rect x="567.2571428571429" y="126.05714285714286" width="63.02857142857143" height="63.02857142857143" fill="#ffffff"/><rect x="567.26" y="126.06" width="31.51" height="31.51" fill="#183FE1"/><polygon points="598.77,126.06 598.77,157.57 567.26,157.57" fill="#20dfdf"/><rect x="598.77" y="126.06" width="31.51" height="31.51" fill="#183FE1"/><polygon points="598.77,126.06 630.28,157.57 598.77,157.57" fill="#FF3565"/><rect x="567.26" y="157.57" width="31.51" height="31.51" fill="#183FE1"/><polygon points="567.26,157.57 598.77,157.57 567.26,189.07999999999998" fill="#FF3565"/><rect x="598.77" y="157.57" width="31.51" height="31.51" fill="#183FE1"/><polygon points="598.77,157.57 630.28,157.57 630.28,189.07999999999998" fill="#20dfdf"/><rect x="0" y="189.0857142857143" width="63.02857142857143" height="63.02857142857143" fill="#ffffff"/><rect x="0" y="189.09" width="31.51" height="31.51" fill="#20dfdf"/><polygon points="31.51,189.09 31.51,220.6 0,220.6" fill="#FF3565"/><rect x="31.51" y="189.09" width="31.51" height="31.51" fill="#183FE1"/><polygon points="31.51,189.09 63.02,220.6 31.51,220.6" fill="#20dfdf"/><rect x="0" y="220.6" width="31.51" height="31.51" fill="#183FE1"/><polygon points="0,220.6 31.51,220.6 0,252.10999999999999" fill="#FF3565"/><rect x="31.51" y="220.6" width="31.51" height="31.51" fill="#20dfdf"/><polygon points="31.51,220.6 63.02,220.6 63.02,252.10999999999999" fill="#FF3565"/><rect x="63.02857142857143" y="189.0857142857143" width="63.02857142857143" height="63.02857142857143" fill="#ffffff"/><rect x="63.03" y="189.09" width="31.51" height="31.51" fill="#FF3565"/><polygon points="94.54,189.09 94.54,220.6 63.03,220.6" fill="#FF3565"/><rect x="94.54" y="189.09" width="31.51" height="31.51" fill="#FF3565"/><polygon points="94.54,189.09 126.05000000000001,220.6 94.54,220.6" fill="#183FE1"/><rect x="63.03" y="220.6" width="31.51" height="31.51" fill="#FF3565"/><polygon points="63.03,220.6 94.54,220.6 63.03,252.10999999999999" fill="#183FE1"/><rect x="94.54" y="220.6" width="31.51" height="31.51" fill="#FF3565"/><polygon points="94.54,220.6 126.05000000000001,220.6 126.05000000000001,252.10999999999999" fill="#FF3565"/><rect x="126.05714285714286" y="189.0857142857143" width="63.02857142857143" height="63.02857142857143" fill="#ffffff"/><rect x="126.06" y="189.09" width="31.51" height="31.51" fill="#20dfdf"/><path d="M 126.06 189.09 A 31.51 31.51 0 0 0 157.57 220.6 L 157.57 189.09" fill="#20dfdf"/><rect x="157.57" y="189.09" width="31.51" height="31.51" fill="#183FE1"/><path d="M 157.57 220.6 A 31.51 31.51 0 0 0 189.07999999999998 189.09 L 157.57 189.09" fill="#20dfdf"/><rect x="126.06" y="220.6" width="31.51" height="31.51" fill="#FF3565"/><path d="M 126.06 252.10999999999999 A 31.51 31.51 0 0 1  157.57 220.6 L 157.57 252.10999999999999" fill="#FF3565"/><rect x="157.57" y="220.6" width="31.51" height="31.51" fill="#FF3565"/><path d="M 157.57 220.6 A 31.51 31.51 0 0 1 189.07999999999998 252.10999999999999 L 157.57 252.10999999999999" fill="#20dfdf"/><rect x="189.0857142857143" y="189.0857142857143" width="63.02857142857143" height="63.02857142857143" fill="#ffffff"/><rect x="189.09" y="189.09" width="31.51" height="31.51" fill="#20dfdf"/><path d="M 189.09 220.6 A 31.51 31.51 0 0 1 220.6 189.09 L 220.6 196.9675 A 23.6325 23.6325 0 0 0 196.9675 220.6" fill="#183FE1"/><rect x="220.6" y="189.09" width="31.51" height="31.51" fill="#FF3565"/><path d="M 220.6 189.09 A 31.51 31.51 0 0 1 252.10999999999999 220.6 L 244.2325 220.6 A 23.6325 23.6325 0 0 0 220.6 196.9675" fill="#183FE1"/><rect x="189.09" y="220.6" width="31.51" height="31.51" fill="#FF3565"/><path d="M 189.09 220.6 A 31.51 31.51 0 0 0 220.6 252.10999999999999 L 220.6 244.2325 A 23.6325 23.6325 0 0 1 196.9675 220.6" fill="#183FE1"/><rect x="220.6" y="220.6" width="31.51" height="31.51" fill="#183FE1"/><path d="M 220.6 252.10999999999999 A 31.51 31.51 0 0 0 252.10999999999999 220.6 L 244.2325 220.6 A 23.6325 23.6325 0 0 1 220.6 244.2325" fill="#20dfdf"/><rect x="252.11" y="189.09" width="63.03" height="63.03" fill="#FF3565"/><polygon points="315.14,189.09 315.14,252.12 252.11,252.12" fill="#20dfdf"/><rect x="315.14" y="189.09" width="63.03" height="63.03" fill="#183FE1"/><polygon points="315.14,189.09 378.16999999999996,252.12 315.14,252.12" fill="#183FE1"/><rect x="378.17" y="189.09" width="63.03" height="63.03" fill="#FF3565"/><path d="M 378.17 189.09 A 63.03 63.03 0 0 1 441.20000000000005 252.12 L 378.17 252.12" fill="#20dfdf"/><rect x="441.2" y="189.09" width="63.03" height="63.03" fill="#20dfdf"/><path d="M 441.2 252.12 A 63.03 63.03 0 0 0 504.23 189.09 L 441.2 189.09" fill="#FF3565"/><rect x="504.22857142857146" y="189.0857142857143" width="63.02857142857143" height="63.02857142857143" fill="#ffffff"/><rect x="504.23" y="189.09" width="31.51" height="31.51" fill="#FF3565"/><path d="M 504.23 220.6 A 31.51 31.51 0 0 0 535.74 189.09 L 504.23 189.09" fill="#183FE1"/><rect x="535.74" y="189.09" width="31.51" height="31.51" fill="#FF3565"/><path d="M 535.74 189.09 A 31.51 31.51 0 0 0 567.25 220.6 L 567.25 189.09" fill="#183FE1"/><rect x="504.23" y="220.6" width="31.51" height="31.51" fill="#183FE1"/><path d="M 504.23 220.6 A 31.51 31.51 0 0 1 535.74 252.10999999999999 L 504.23 252.10999999999999" fill="#20dfdf"/><rect x="535.74" y="220.6" width="31.51" height="31.51" fill="#20dfdf"/><path d="M 535.74 252.10999999999999 A 31.51 31.51 0 0 1  567.25 220.6 L 567.25 252.10999999999999" fill="#20dfdf"/><rect x="567.2571428571429" y="189.0857142857143" width="63.02857142857143" height="63.02857142857143" fill="#ffffff"/><rect x="567.26" y="189.09" width="31.51" height="31.51" fill="#FF3565"/><polygon points="598.77,189.09 598.77,220.6 567.26,220.6" fill="#20dfdf"/><rect x="598.77" y="189.09" width="31.51" height="31.51" fill="#FF3565"/><polygon points="598.77,189.09 630.28,220.6 598.77,220.6" fill="#FF3565"/><rect x="567.26" y="220.6" width="31.51" height="31.51" fill="#FF3565"/><polygon points="567.26,220.6 598.77,220.6 598.77,252.10999999999999" fill="#20dfdf"/><rect x="598.77" y="220.6" width="31.51" height="31.51" fill="#183FE1"/><polygon points="598.77,220.6 630.28,220.6 598.77,252.10999999999999" fill="#FF3565"/><rect x="0" y="252.11" width="63.03" height="63.03" fill="#20dfdf"/><polygon points="0,252.11 63.03,252.11 0,315.14" fill="#20dfdf"/><rect x="63.02857142857143" y="252.11428571428573" width="63.02857142857143" height="63.02857142857143" fill="#ffffff"/><rect x="63.03" y="252.11" width="31.51" height="31.51" fill="#20dfdf"/><polygon points="94.54,252.11 94.54,283.62 63.03,283.62" fill="#20dfdf"/><rect x="94.54" y="252.11" width="31.51" height="31.51" fill="#FF3565"/><polygon points="94.54,252.11 126.05000000000001,283.62 94.54,283.62" fill="#183FE1"/><rect x="63.03" y="283.63" width="31.51" height="31.51" fill="#20dfdf"/><polygon points="63.03,283.63 94.54,283.63 94.54,315.14" fill="#FF3565"/><rect x="94.54" y="283.63" width="31.51" height="31.51" fill="#FF3565"/><polygon points="94.54,283.63 126.05000000000001,283.63 94.54,315.14" fill="#183FE1"/><rect x="126.05714285714286" y="252.11428571428573" width="63.02857142857143" height="63.02857142857143" fill="#ffffff"/><rect x="126.06" y="252.11" width="31.51" height="31.51" fill="#FF3565"/><path d="M 126.06 252.11 A 31.51 31.51 0 0 1 157.57 283.62 L 126.06 283.62" fill="#183FE1"/><rect x="157.57" y="252.11" width="31.51" height="31.51" fill="#20dfdf"/><path d="M 157.57 283.62 A 31.51 31.51 0 0 1  189.07999999999998 252.11 L 189.07999999999998 283.62" fill="#183FE1"/><rect x="126.06" y="283.63" width="31.51" height="31.51" fill="#20dfdf"/><path d="M 126.06 315.14 A 31.51 31.51 0 0 0 157.57 283.63 L 126.06 283.63" fill="#20dfdf"/><rect x="157.57" y="283.63" width="31.51" height="31.51" fill="#20dfdf"/><path d="M 157.57 283.63 A 31.51 31.51 0 0 0 189.07999999999998 315.14 L 189.07999999999998 283.63" fill="#20dfdf"/><rect x="189.0857142857143" y="252.11428571428573" width="63.02857142857143" height="63.02857142857143" fill="#ffffff"/><rect x="189.09" y="252.11" width="31.51" height="31.51" fill="#20dfdf"/><circle cx="204.845" cy="267.865" r="15.755" fill="#183FE1"/><rect x="220.6" y="252.11" width="31.51" height="31.51" fill="#183FE1"/><rect x="220.6" y="252.11" width="31.51" height="31.51" fill="#183FE1"/><rect x="189.09" y="283.63" width="31.51" height="31.51" fill="#183FE1"/><circle cx="204.845" cy="299.385" r="15.755" fill="#183FE1"/><rect x="220.6" y="283.63" width="31.51" height="31.51" fill="#20dfdf"/><rect x="220.6" y="283.63" width="31.51" height="31.51" fill="#183FE1"/><rect x="252.11428571428573" y="252.11428571428573" width="63.02857142857143" height="63.02857142857143" fill="#ffffff"/><rect x="252.11" y="252.11" width="31.51" height="31.51" fill="#FF3565"/><circle cx="267.865" cy="267.865" r="15.755" fill="#20dfdf"/><rect x="283.63" y="252.11" width="31.51" height="31.51" fill="#FF3565"/><rect x="283.63" y="252.11" width="31.51" height="31.51" fill="#FF3565"/><rect x="252.11" y="283.63" width="31.51" height="31.51" fill="#FF3565"/><circle cx="267.865" cy="299.385" r="15.755" fill="#183FE1"/><rect x="283.63" y="283.63" width="31.51" height="31.51" fill="#183FE1"/><rect x="283.63" y="283.63" width="31.51" height="31.51" fill="#183FE1"/><rect x="315.14285714285717" y="252.11428571428573" width="63.02857142857143" height="63.02857142857143" fill="#ffffff"/><rect x="315.14" y="252.11" width="31.51" height="31.51" fill="#183FE1"/><polygon points="346.65,252.11 346.65,283.62 315.14,283.62" fill="#183FE1"/><rect x="346.66" y="252.11" width="31.51" height="31.51" fill="#FF3565"/><polygon points="346.66,252.11 378.17,283.62 346.66,283.62" fill="#20dfdf"/><rect x="315.14" y="283.63" width="31.51" height="31.51" fill="#20dfdf"/><polygon points="315.14,283.63 346.65,283.63 346.65,315.14" fill="#FF3565"/><rect x="346.66" y="283.63" width="31.51" height="31.51" fill="#183FE1"/><polygon points="346.66,283.63 378.17,283.63 346.66,315.14" fill="#20dfdf"/><rect x="378.17" y="252.11" width="63.03" height="63.03" fill="#183FE1"/><path d="M 378.17 315.14 A 63.03 63.03 0 0 1  441.20000000000005 252.11 L 378.17 315.14 A 63.03 63.03 0 0 0 441.20000000000005 252.11" fill="#20dfdf"/><rect x="441.2" y="252.11" width="63.03" height="63.03" fill="#183FE1"/><polygon points="441.2,252.11 504.23,315.14 441.2,315.14" fill="#FF3565"/><rect x="504.22857142857146" y="252.11428571428573" width="63.02857142857143" height="63.02857142857143" fill="#ffffff"/><rect x="504.23" y="252.11" width="31.51" height="31.51" fill="#183FE1"/><polygon points="535.74,252.11 535.74,283.62 504.23,283.62" fill="#FF3565"/><rect x="535.74" y="252.11" width="31.51" height="31.51" fill="#20dfdf"/><polygon points="535.74,252.11 567.25,283.62 535.74,283.62" fill="#FF3565"/><rect x="504.23" y="283.63" width="31.51" height="31.51" fill="#FF3565"/><polygon points="504.23,283.63 535.74,283.63 504.23,315.14" fill="#FF3565"/><rect x="535.74" y="283.63" width="31.51" height="31.51" fill="#20dfdf"/><polygon points="535.74,283.63 567.25,283.63 567.25,315.14" fill="#20dfdf"/><rect x="567.2571428571429" y="252.11428571428573" width="63.02857142857143" height="63.02857142857143" fill="#ffffff"/><rect x="567.26" y="252.11" width="31.51" height="31.51" fill="#20dfdf"/><path d="M 567.26 283.62 A 31.51 31.51 0 0 1  598.77 252.11 L 598.77 283.62" fill="#FF3565"/><rect x="598.77" y="252.11" width="31.51" height="31.51" fill="#FF3565"/><path d="M 598.77 252.11 A 31.51 31.51 0 0 1 630.28 283.62 L 598.77 283.62" fill="#20dfdf"/><rect x="567.26" y="283.63" width="31.51" height="31.51" fill="#20dfdf"/><path d="M 567.26 283.63 A 31.51 31.51 0 0 0 598.77 315.14 L 598.77 283.63" fill="#183FE1"/><rect x="598.77" y="283.63" width="31.51" height="31.51" fill="#183FE1"/><path d="M 598.77 315.14 A 31.51 31.51 0 0 0 630.28 283.63 L 598.77 283.63" fill="#183FE1"/><rect x="0" y="315.14" width="63.03" height="63.03" fill="#183FE1"/><polygon points="0,315.14 63.03,378.16999999999996 0,378.16999999999996" fill="#183FE1"/><rect x="63.03" y="315.14" width="63.03" height="63.03" fill="#20dfdf"/><polygon points="126.06,315.14 126.06,378.16999999999996 63.03,378.16999999999996" fill="#20dfdf"/><rect x="126.06" y="315.14" width="63.03" height="63.03" fill="#183FE1"/><path d="M 126.06 315.14 A 63.03 63.03 0 0 0 189.09 378.16999999999996 L 189.09 315.14" fill="#FF3565"/><rect x="189.0857142857143" y="315.14285714285717" width="63.02857142857143" height="63.02857142857143" fill="#ffffff"/><rect x="189.09" y="315.14" width="31.51" height="31.51" fill="#FF3565"/><circle cx="204.845" cy="330.895" r="15.755" fill="#FF3565"/><rect x="220.6" y="315.14" width="31.51" height="31.51" fill="#183FE1"/><rect x="220.6" y="315.14" width="31.51" height="31.51" fill="#FF3565"/><rect x="189.09" y="346.66" width="31.51" height="31.51" fill="#20dfdf"/><circle cx="204.845" cy="362.415" r="15.755" fill="#183FE1"/><rect x="220.6" y="346.66" width="31.51" height="31.51" fill="#FF3565"/><rect x="220.6" y="346.66" width="31.51" height="31.51" fill="#183FE1"/><rect x="252.11428571428573" y="315.14285714285717" width="63.02857142857143" height="63.02857142857143" fill="#ffffff"/><rect x="252.11" y="315.14" width="31.51" height="31.51" fill="#FF3565"/><path d="M 252.11 346.65 A 31.51 31.51 0 0 1 283.62 315.14 L 283.62 323.0175 A 23.6325 23.6325 0 0 0 259.9875 346.65" fill="#183FE1"/><rect x="283.63" y="315.14" width="31.51" height="31.51" fill="#FF3565"/><path d="M 283.63 315.14 A 31.51 31.51 0 0 1 315.14 346.65 L 307.2625 346.65 A 23.6325 23.6325 0 0 0 283.63 323.0175" fill="#183FE1"/><rect x="252.11" y="346.66" width="31.51" height="31.51" fill="#FF3565"/><path d="M 252.11 346.66 A 31.51 31.51 0 0 0 283.62 378.17 L 283.62 370.2925 A 23.6325 23.6325 0 0 1 259.9875 346.66" fill="#183FE1"/><rect x="283.63" y="346.66" width="31.51" height="31.51" fill="#20dfdf"/><path d="M 283.63 378.17 A 31.51 31.51 0 0 0 315.14 346.66 L 307.2625 346.66 A 23.6325 23.6325 0 0 1 283.63 370.2925" fill="#FF3565"/><rect x="315.14" y="315.14" width="63.03" height="63.03" fill="#20dfdf"/><rect x="315.14" y="315.14" width="63.03" height="63.03" fill="#FF3565"/><rect x="378.1714285714286" y="315.14285714285717" width="63.02857142857143" height="63.02857142857143" fill="#ffffff"/><rect x="378.17" y="315.14" width="31.51" height="31.51" fill="#183FE1"/><circle cx="393.925" cy="330.895" r="15.755" fill="#20dfdf"/><rect x="409.69" y="315.14" width="31.51" height="31.51" fill="#183FE1"/><rect x="409.69" y="315.14" width="31.51" height="31.51" fill="#FF3565"/><rect x="378.17" y="346.66" width="31.51" height="31.51" fill="#183FE1"/><circle cx="393.925" cy="362.415" r="15.755" fill="#183FE1"/><rect x="409.69" y="346.66" width="31.51" height="31.51" fill="#20dfdf"/><rect x="409.69" y="346.66" width="31.51" height="31.51" fill="#FF3565"/><rect x="441.2" y="315.14" width="63.03" height="63.03" fill="#183FE1"/><polygon points="441.2,315.14 504.23,315.14 504.23,378.16999999999996" fill="#FF3565"/><rect x="504.23" y="315.14" width="63.03" height="63.03" fill="#183FE1"/><polygon points="504.23,315.14 567.26,315.14 504.23,378.16999999999996" fill="#183FE1"/><rect x="567.26" y="315.14" width="63.03" height="63.03" fill="#183FE1"/><polygon points="567.26,315.14 630.29,378.16999999999996 567.26,378.16999999999996" fill="#20dfdf"/><rect x="0" y="378.17" width="63.03" height="63.03" fill="#183FE1"/><path d="M 0 378.17 A 63.03 63.03 0 0 0 63.03 441.20000000000005 L 63.03 378.17" fill="#20dfdf"/><rect x="63.03" y="378.17" width="63.03" height="63.03" fill="#183FE1"/><path d="M 63.03 378.17 A 63.03 63.03 0 0 1  126.06 441.20000000000005 L 63.03 378.17 A 63.03 63.03 0 0 0 126.06 441.20000000000005" fill="#20dfdf"/><rect x="126.06" y="378.17" width="63.03" height="63.03" fill="#20dfdf"/><polygon points="126.06,378.17 189.09,378.17 189.09,441.20000000000005" fill="#183FE1"/><rect x="189.09" y="378.17" width="63.03" height="63.03" fill="#183FE1"/><path d="M 189.09 441.20000000000005 A 63.03 63.03 0 0 1  252.12 378.17 L 189.09 441.20000000000005 A 63.03 63.03 0 0 0 252.12 378.17" fill="#183FE1"/><rect x="252.11428571428573" y="378.1714285714286" width="63.02857142857143" height="63.02857142857143" fill="#ffffff"/><rect x="252.11" y="378.17" width="31.51" height="31.51" fill="#183FE1"/><path d="M 252.11 409.68 A 31.51 31.51 0 0 1  283.62 378.17 L 283.62 409.68" fill="#FF3565"/><rect x="283.63" y="378.17" width="31.51" height="31.51" fill="#FF3565"/><path d="M 283.63 378.17 A 31.51 31.51 0 0 1 315.14 409.68 L 283.63 409.68" fill="#20dfdf"/><rect x="252.11" y="409.69" width="31.51" height="31.51" fill="#20dfdf"/><path d="M 252.11 409.69 A 31.51 31.51 0 0 0 283.62 441.2 L 283.62 409.69" fill="#20dfdf"/><rect x="283.63" y="409.69" width="31.51" height="31.51" fill="#20dfdf"/><path d="M 283.63 441.2 A 31.51 31.51 0 0 0 315.14 409.69 L 283.63 409.69" fill="#FF3565"/><rect x="315.14" y="378.17" width="63.03" height="63.03" fill="#183FE1"/><path d="M 315.14 378.17 A 63.03 63.03 0 0 0 378.16999999999996 441.20000000000005 L 378.16999999999996 378.17" fill="#183FE1"/><rect x="378.1714285714286" y="378.1714285714286" width="63.02857142857143" height="63.02857142857143" fill="#ffffff"/><rect x="378.17" y="378.17" width="31.51" height="31.51" fill="#20dfdf"/><path d="M 378.17 378.17 A 31.51 31.51 0 0 0 409.68 409.68 L 409.68 378.17" fill="#FF3565"/><rect x="409.69" y="378.17" width="31.51" height="31.51" fill="#FF3565"/><path d="M 409.69 409.68 A 31.51 31.51 0 0 0 441.2 378.17 L 409.69 378.17" fill="#183FE1"/><rect x="378.17" y="409.69" width="31.51" height="31.51" fill="#20dfdf"/><path d="M 378.17 441.2 A 31.51 31.51 0 0 1  409.68 409.69 L 409.68 441.2" fill="#20dfdf"/><rect x="409.69" y="409.69" width="31.51" height="31.51" fill="#20dfdf"/><path d="M 409.69 409.69 A 31.51 31.51 0 0 1 441.2 441.2 L 409.69 441.2" fill="#183FE1"/><rect x="441.2" y="378.17" width="63.03" height="63.03" fill="#FF3565"/><rect x="441.2" y="378.17" width="63.03" height="63.03" fill="#183FE1"/><rect x="504.23" y="378.17" width="63.03" height="63.03" fill="#20dfdf"/><polygon points="504.23,378.17 567.26,378.17 504.23,441.20000000000005" fill="#20dfdf"/><rect x="567.26" y="378.17" width="63.03" height="63.03" fill="#183FE1"/><polygon points="630.29,378.17 630.29,441.20000000000005 567.26,441.20000000000005" fill="#183FE1"/></g></svg>